<mxfile host="app.diagrams.net" modified="2021-07-06T13:29:42.565Z" agent="5.0 (Windows NT 10.0; Win64; x64) AppleWebKit/537.36 (KHTML, like Gecko) Chrome/91.0.4472.114 Safari/537.36 OPR/77.0.4054.172" etag="Z4v8c2QB_GT5gLPj6h6O" version="14.8.4" type="github">
  <diagram name="Periksa" id="e7e014a7-5840-1c2e-5031-d8a46d1fe8dd">
    <mxGraphModel dx="1068" dy="483" grid="1" gridSize="10" guides="1" tooltips="1" connect="1" arrows="1" fold="1" page="1" pageScale="1" pageWidth="1400" pageHeight="850" background="none" math="0" shadow="0">
      <root>
        <mxCell id="0" />
        <mxCell id="1" parent="0" />
        <mxCell id="2" value="Bidan" style="swimlane;whiteSpace=wrap" parent="1" vertex="1">
          <mxGeometry x="164.5" y="128" width="280" height="570" as="geometry" />
        </mxCell>
        <mxCell id="5" value="" style="ellipse;shape=startState;fillColor=#000000;strokeColor=#1C0000;" parent="2" vertex="1">
          <mxGeometry x="100" y="40" width="30" height="30" as="geometry" />
        </mxCell>
        <mxCell id="6" value="" style="edgeStyle=elbowEdgeStyle;elbow=horizontal;verticalAlign=bottom;endArrow=open;endSize=8;strokeColor=#FF0000;endFill=1;rounded=0" parent="2" source="5" target="7" edge="1">
          <mxGeometry x="100" y="40" as="geometry">
            <mxPoint x="115" y="110" as="targetPoint" />
          </mxGeometry>
        </mxCell>
        <mxCell id="7" value="Proses&#xa;Diagnose" style="" parent="2" vertex="1">
          <mxGeometry x="60" y="110" width="110" height="50" as="geometry" />
        </mxCell>
        <mxCell id="86yHMH84XLyf64HmFGPL-49" value="Surat Hasil&#xa;Diagnose" style="" parent="2" vertex="1">
          <mxGeometry x="60" y="235" width="110" height="50" as="geometry" />
        </mxCell>
        <mxCell id="86yHMH84XLyf64HmFGPL-51" value="" style="endArrow=classic;html=1;strokeColor=#FF0000;entryX=0.5;entryY=0;entryDx=0;entryDy=0;exitX=0.5;exitY=1;exitDx=0;exitDy=0;" parent="2" source="7" target="86yHMH84XLyf64HmFGPL-49" edge="1">
          <mxGeometry width="50" height="50" relative="1" as="geometry">
            <mxPoint x="105.5" y="222" as="sourcePoint" />
            <mxPoint x="155.5" y="172" as="targetPoint" />
          </mxGeometry>
        </mxCell>
        <mxCell id="86yHMH84XLyf64HmFGPL-56" value="Start" style="text;html=1;strokeColor=none;fillColor=none;align=center;verticalAlign=middle;whiteSpace=wrap;rounded=0;" parent="2" vertex="1">
          <mxGeometry x="60" y="32" width="40" height="20" as="geometry" />
        </mxCell>
        <mxCell id="3" value="Pasien" style="swimlane;whiteSpace=wrap" parent="1" vertex="1">
          <mxGeometry x="444.5" y="128" width="280" height="570" as="geometry" />
        </mxCell>
        <mxCell id="16" value="Menerima Surat&#xa;Hasil Diagnose" style="" parent="3" vertex="1">
          <mxGeometry x="75.5" y="235" width="110" height="50" as="geometry" />
        </mxCell>
        <mxCell id="18" value="Menyerahkan Surat&#xa;Â Hasil Diagnose" style="" parent="3" vertex="1">
          <mxGeometry x="75.5" y="322" width="110" height="50" as="geometry" />
        </mxCell>
        <mxCell id="86yHMH84XLyf64HmFGPL-52" value="" style="endArrow=classic;html=1;strokeColor=#FF0000;entryX=0.5;entryY=0;entryDx=0;entryDy=0;exitX=0.5;exitY=1;exitDx=0;exitDy=0;" parent="3" source="16" target="18" edge="1">
          <mxGeometry width="50" height="50" relative="1" as="geometry">
            <mxPoint x="5.5" y="322" as="sourcePoint" />
            <mxPoint x="55.5" y="272" as="targetPoint" />
          </mxGeometry>
        </mxCell>
        <mxCell id="4" value="Staf Klinik" style="swimlane;whiteSpace=wrap" parent="1" vertex="1">
          <mxGeometry x="724.5" y="128" width="280" height="570" as="geometry" />
        </mxCell>
        <mxCell id="33" value="Menyalin Riwayat&#xa;Penyakit Pada Surat Diagnose" style="" parent="4" vertex="1">
          <mxGeometry x="40" y="412" width="210" height="50" as="geometry" />
        </mxCell>
        <mxCell id="38" value="" style="ellipse;shape=endState;fillColor=#000000;strokeColor=#1C0000;" parent="4" vertex="1">
          <mxGeometry x="130" y="500" width="30" height="30" as="geometry" />
        </mxCell>
        <mxCell id="39" value="" style="endArrow=open;strokeColor=#FF0000;endFill=1;rounded=0" parent="4" source="33" target="38" edge="1">
          <mxGeometry relative="1" as="geometry" />
        </mxCell>
        <mxCell id="86yHMH84XLyf64HmFGPL-53" value="Menerima Surat&#xa;Hasil Diagnose" style="" parent="4" vertex="1">
          <mxGeometry x="90" y="322" width="110" height="50" as="geometry" />
        </mxCell>
        <mxCell id="86yHMH84XLyf64HmFGPL-54" value="" style="endArrow=classic;html=1;strokeColor=#FF0000;entryX=0.5;entryY=0;entryDx=0;entryDy=0;exitX=0.5;exitY=1;exitDx=0;exitDy=0;" parent="4" source="86yHMH84XLyf64HmFGPL-53" target="33" edge="1">
          <mxGeometry width="50" height="50" relative="1" as="geometry">
            <mxPoint x="-114.5" y="422" as="sourcePoint" />
            <mxPoint x="-64.5" y="372" as="targetPoint" />
          </mxGeometry>
        </mxCell>
        <mxCell id="86yHMH84XLyf64HmFGPL-57" value="Stop" style="text;html=1;strokeColor=none;fillColor=none;align=center;verticalAlign=middle;whiteSpace=wrap;rounded=0;" parent="4" vertex="1">
          <mxGeometry x="160" y="522" width="40" height="20" as="geometry" />
        </mxCell>
        <mxCell id="86yHMH84XLyf64HmFGPL-50" value="" style="endArrow=classic;html=1;strokeColor=#FF0000;entryX=0;entryY=0.5;entryDx=0;entryDy=0;" parent="1" target="16" edge="1">
          <mxGeometry width="50" height="50" relative="1" as="geometry">
            <mxPoint x="340" y="388" as="sourcePoint" />
            <mxPoint x="500" y="400" as="targetPoint" />
          </mxGeometry>
        </mxCell>
        <mxCell id="86yHMH84XLyf64HmFGPL-55" value="" style="endArrow=classic;html=1;strokeColor=#FF0000;entryX=0;entryY=0.5;entryDx=0;entryDy=0;exitX=1;exitY=0.5;exitDx=0;exitDy=0;" parent="1" source="18" target="86yHMH84XLyf64HmFGPL-53" edge="1">
          <mxGeometry width="50" height="50" relative="1" as="geometry">
            <mxPoint x="610" y="550" as="sourcePoint" />
            <mxPoint x="660" y="500" as="targetPoint" />
          </mxGeometry>
        </mxCell>
      </root>
    </mxGraphModel>
  </diagram>
</mxfile>
